<?xml version="1.0" encoding="UTF-8" standalone="no"?>
<!-- Created with Inkscape (http://www.inkscape.org/) -->

<svg
   xmlns:dc="http://purl.org/dc/elements/1.1/"
   xmlns:cc="http://creativecommons.org/ns#"
   xmlns:rdf="http://www.w3.org/1999/02/22-rdf-syntax-ns#"
   xmlns:svg="http://www.w3.org/2000/svg"
   xmlns="http://www.w3.org/2000/svg"
   xmlns:sodipodi="http://sodipodi.sourceforge.net/DTD/sodipodi-0.dtd"
   xmlns:inkscape="http://www.inkscape.org/namespaces/inkscape"
   width="48px"
   height="48px"
   id="svg2986"
   version="1.1"
   inkscape:version="0.48.4 r9939"
   sodipodi:docname="New document 1">
  <defs
     id="defs2988">
    <filter
       inkscape:collect="always"
       id="filter3850">
      <feGaussianBlur
         inkscape:collect="always"
         stdDeviation="0.43345475"
         id="feGaussianBlur3852" />
    </filter>
  </defs>
  <sodipodi:namedview
     id="base"
     pagecolor="#ffffff"
     bordercolor="#666666"
     borderopacity="1.0"
     inkscape:pageopacity="0.0"
     inkscape:pageshadow="2"
     inkscape:zoom="7"
     inkscape:cx="0.14285714"
     inkscape:cy="24"
     inkscape:current-layer="layer1"
     showgrid="true"
     inkscape:grid-bbox="true"
     inkscape:document-units="px"
     inkscape:window-width="1920"
     inkscape:window-height="1030"
     inkscape:window-x="0"
     inkscape:window-y="0"
     inkscape:window-maximized="1" />
  <metadata
     id="metadata2991">
    <rdf:RDF>
      <cc:Work
         rdf:about="">
        <dc:format>image/svg+xml</dc:format>
        <dc:type
           rdf:resource="http://purl.org/dc/dcmitype/StillImage" />
        <dc:title></dc:title>
      </cc:Work>
    </rdf:RDF>
  </metadata>
  <g
     id="layer1"
     inkscape:label="Layer 1"
     inkscape:groupmode="layer">
    <path
       inkscape:connector-curvature="0"
       d="M 33.879597,26.822461 18.051409,42.650157 c -1.00689,1.006889 -2.639018,1.006889 -3.645415,0 -1.006396,-1.006397 -1.006396,-2.639018 0,-3.645415 L 28.41123,25 14.406487,10.995258 c -1.006396,-1.0068891 -1.006396,-2.6390168 0,-3.6454138 1.006397,-1.00689 2.638525,-1.00689 3.645414,0 L 33.880091,23.17754 c 0.502951,0.503445 0.754426,1.162706 0.754426,1.82246 0,0.659755 -0.251969,1.319509 -0.75492,1.822461 z"
       id="path3-3"
       style="fill:#000000;fill-opacity:1;filter:url(#filter3850)" />
    <path
       inkscape:connector-curvature="0"
       d="M 33.73674,25.822461 17.908552,41.650157 c -1.00689,1.006889 -2.639018,1.006889 -3.645415,0 -1.006396,-1.006397 -1.006396,-2.639018 0,-3.645415 L 28.268373,24 14.26363,9.9952577 c -1.006396,-1.0068887 -1.006396,-2.6390167 0,-3.6454137 1.006397,-1.00689 2.638525,-1.00689 3.645414,0 l 15.82819,15.827696 c 0.502951,0.503445 0.754426,1.162706 0.754426,1.82246 0,0.659755 -0.251969,1.319509 -0.75492,1.822461 z"
       id="path3"
       style="fill:#000000;fill-opacity:1" />
  </g>
</svg>
